<svg xmlns="http://www.w3.org/2000/svg" xmlns:xlink="http://www.w3.org/1999/xlink" width="4000" zoomAndPan="magnify" viewBox="0 0 3000 2999.999989" height="4000" preserveAspectRatio="xMidYMid meet" version="1.0"><defs><g/></defs><g fill="#32c36c" fill-opacity="1"><g transform="translate(288.114456, 1625.305466)"><g><path d="M 299.160156 -84.976562 C 295.183594 -124.734375 281.765625 -152.0625 246.980469 -164.984375 C 290.214844 -177.410156 315.0625 -205.734375 315.0625 -249.464844 C 315.0625 -309.59375 273.816406 -334.441406 224.121094 -340.40625 C 206.230469 -342.394531 192.8125 -342.890625 172.4375 -342.890625 L 42.238281 -342.890625 L 42.238281 0 L 120.261719 0 L 120.261719 -134.671875 L 151.070312 -134.671875 C 160.511719 -134.671875 168.960938 -134.671875 178.402344 -134.175781 C 204.242188 -132.1875 218.65625 -110.320312 223.128906 -73.050781 C 226.109375 -44.226562 231.078125 -23.851562 239.527344 0 L 324.503906 0 C 310.589844 -19.878906 303.632812 -44.726562 299.160156 -84.976562 Z M 120.261719 -191.820312 L 120.261719 -282.261719 L 163.492188 -282.261719 C 174.425781 -282.261719 182.875 -281.765625 189.832031 -281.269531 C 215.175781 -278.289062 233.5625 -268.347656 233.5625 -237.042969 C 233.5625 -205.734375 212.195312 -194.800781 186.851562 -192.316406 C 179.894531 -191.820312 171.445312 -191.820312 160.511719 -191.820312 Z M 120.261719 -191.820312 "/></g></g></g><g fill="#32c36c" fill-opacity="1"><g transform="translate(619.077621, 1625.305466)"><g><path d="M 282.261719 -264.871094 L 204.742188 -264.871094 L 204.742188 -123.242188 C 204.742188 -74.542969 183.867188 -47.210938 152.0625 -47.210938 C 121.75 -47.210938 107.835938 -63.113281 104.359375 -89.945312 C 102.867188 -103.363281 102.371094 -117.773438 102.371094 -126.222656 L 102.371094 -264.871094 L 24.847656 -264.871094 L 24.847656 -109.328125 C 24.847656 -87.957031 25.34375 -73.546875 27.332031 -60.128906 C 33.296875 -23.851562 66.09375 6.957031 120.757812 6.957031 C 145.605469 6.957031 164.488281 1.988281 182.378906 -9.9375 L 204.742188 -45.222656 L 204.742188 0 L 282.261719 0 Z M 282.261719 -264.871094 "/></g></g></g><g fill="#32c36c" fill-opacity="1"><g transform="translate(931.156935, 1625.305466)"><g><path d="M 195.296875 -271.828125 C 168.464844 -271.828125 142.125 -265.863281 127.21875 -254.433594 L 107.339844 -225.113281 L 107.339844 -365.253906 L 29.320312 -365.253906 L 29.320312 0 L 107.339844 0 L 107.339844 -34.785156 L 124.734375 -6.957031 C 138.148438 1.492188 164.488281 6.957031 186.351562 6.957031 C 254.433594 6.957031 312.578125 -42.738281 312.578125 -138.148438 C 312.578125 -216.171875 268.347656 -271.828125 195.296875 -271.828125 Z M 167.964844 -46.710938 C 138.148438 -46.710938 107.339844 -66.589844 107.339844 -123.738281 L 107.339844 -135.664062 C 107.339844 -196.292969 134.671875 -218.15625 170.453125 -218.15625 C 207.226562 -218.15625 232.570312 -185.359375 232.570312 -133.179688 C 232.570312 -75.535156 205.734375 -46.710938 167.964844 -46.710938 Z M 167.964844 -46.710938 "/></g></g></g><g fill="#32c36c" fill-opacity="1"><g transform="translate(1256.653717, 1625.305466)"><g><path d="M 195.296875 -271.828125 C 168.464844 -271.828125 142.125 -265.863281 127.21875 -254.433594 L 107.339844 -225.113281 L 107.339844 -365.253906 L 29.320312 -365.253906 L 29.320312 0 L 107.339844 0 L 107.339844 -34.785156 L 124.734375 -6.957031 C 138.148438 1.492188 164.488281 6.957031 186.351562 6.957031 C 254.433594 6.957031 312.578125 -42.738281 312.578125 -138.148438 C 312.578125 -216.171875 268.347656 -271.828125 195.296875 -271.828125 Z M 167.964844 -46.710938 C 138.148438 -46.710938 107.339844 -66.589844 107.339844 -123.738281 L 107.339844 -135.664062 C 107.339844 -196.292969 134.671875 -218.15625 170.453125 -218.15625 C 207.226562 -218.15625 232.570312 -185.359375 232.570312 -133.179688 C 232.570312 -75.535156 205.734375 -46.710938 167.964844 -46.710938 Z M 167.964844 -46.710938 "/></g></g></g><g fill="#32c36c" fill-opacity="1"><g transform="translate(1582.15041, 1625.305466)"><g><path d="M 68.082031 -367.242188 C 43.234375 -367.242188 26.835938 -351.835938 26.835938 -327.980469 C 26.835938 -303.632812 43.234375 -288.226562 68.082031 -288.226562 C 92.929688 -288.226562 109.824219 -303.632812 109.824219 -327.980469 C 109.824219 -351.835938 92.929688 -367.242188 68.082031 -367.242188 Z M 107.339844 0 L 107.339844 -264.871094 L 29.320312 -264.871094 L 29.320312 0 Z M 107.339844 0 "/></g></g></g><g fill="#32c36c" fill-opacity="1"><g transform="translate(1719.306287, 1625.305466)"><g><path d="M 148.585938 -271.828125 C 73.546875 -271.828125 12.921875 -221.140625 12.921875 -130.199219 C 12.921875 -40.253906 68.578125 6.957031 142.125 6.957031 C 211.199219 6.957031 261.890625 -27.332031 272.324219 -93.921875 L 195.296875 -93.921875 C 189.335938 -63.113281 170.453125 -46.710938 146.597656 -46.710938 C 114.296875 -46.710938 92.929688 -73.546875 92.929688 -135.167969 C 92.929688 -191.324219 113.800781 -218.15625 146.597656 -218.15625 C 172.4375 -218.15625 190.824219 -203.25 196.292969 -166.972656 L 272.324219 -166.972656 C 268.347656 -226.109375 222.628906 -271.828125 148.585938 -271.828125 Z M 148.585938 -271.828125 "/></g></g></g><g fill="#32c36c" fill-opacity="1"><g transform="translate(2004.044085, 1625.305466)"><g/></g></g><g fill="#32c36c" fill-opacity="1"><g transform="translate(2096.475206, 1625.305466)"><g/></g></g><g fill="#32c36c" fill-opacity="1"><g transform="translate(2188.906328, 1625.305466)"><g/></g></g><g fill="#32c36c" fill-opacity="1"><g transform="translate(2281.337438, 1625.305466)"><g/></g></g><g fill="#32c36c" fill-opacity="1"><g transform="translate(2373.758893, 1625.305466)"><g><path d="M 284.75 -198.777344 C 278.785156 -244.992188 246.484375 -271.828125 190.824219 -271.828125 C 165.980469 -271.828125 147.09375 -266.859375 129.203125 -254.929688 L 107.339844 -223.128906 L 107.339844 -264.871094 L 29.320312 -264.871094 L 29.320312 0 L 107.339844 0 L 107.339844 -122.746094 C 107.339844 -190.328125 130.199219 -218.15625 161.007812 -218.15625 C 191.324219 -218.15625 206.230469 -201.261719 208.21875 -174.425781 C 209.210938 -161.007812 209.210938 -147.59375 209.210938 -137.652344 L 209.210938 0 L 287.234375 0 L 287.234375 -149.578125 C 287.234375 -170.949219 286.734375 -185.359375 284.75 -198.777344 Z M 284.75 -198.777344 "/></g></g></g><path fill="#00791b" d="M 2278.609375 1594.390625 C 2275.703125 1594.390625 2272.886719 1592.878906 2271.351562 1590.183594 L 2235.976562 1531.914062 C 2233.6875 1527.910156 2234.582031 1522.898438 2238.582031 1520.601562 L 2279.996094 1495.542969 C 2281.296875 1494.800781 2284.136719 1494.160156 2285.542969 1494.160156 C 2288.449219 1494.160156 2291.15625 1495.8125 2292.691406 1498.511719 L 2318.644531 1541.292969 L 2320.015625 1559.9375 C 2322.300781 1563.9375 2312.011719 1569.828125 2308.003906 1572.117188 L 2282.734375 1593.289062 C 2281.441406 1594.042969 2280.011719 1594.390625 2278.609375 1594.390625 Z M 2278.609375 1594.390625 " fill-opacity="1" fill-rule="nonzero"/><path fill="#32c36c" d="M 2220.128906 1619.449219 C 2215.511719 1619.449219 2211.777344 1615.71875 2211.777344 1611.097656 L 2211.777344 1560.980469 C 2211.777344 1556.363281 2215.511719 1552.628906 2220.128906 1552.628906 L 2303.660156 1552.628906 C 2319.113281 1552.628906 2316.605469 1537.75 2316.605469 1537.75 C 2316.605469 1537.75 2319.335938 1542.445312 2319.738281 1543.1875 C 2322.46875 1548.316406 2324.28125 1556.152344 2320.023438 1564.113281 L 2294.21875 1615.25 C 2293.007812 1617.664062 2290.117188 1619.449219 2286.953125 1619.449219 Z M 2220.128906 1619.449219 " fill-opacity="1" fill-rule="nonzero"/><path fill="#32c36c" d="M 2211.777344 1644.507812 C 2209.605469 1644.507812 2207.46875 1643.65625 2205.871094 1642.0625 L 2155.753906 1591.945312 C 2152.488281 1588.679688 2152.488281 1583.398438 2155.753906 1580.132812 L 2205.871094 1530.015625 C 2207.46875 1528.421875 2209.605469 1527.570312 2211.777344 1527.570312 C 2212.855469 1527.570312 2213.941406 1527.769531 2214.976562 1528.203125 C 2218.101562 1529.492188 2220.128906 1532.546875 2220.128906 1535.921875 L 2220.128906 1636.15625 C 2220.128906 1639.53125 2218.101562 1642.589844 2214.976562 1643.875 C 2213.941406 1644.308594 2212.855469 1644.507812 2211.777344 1644.507812 Z M 2211.777344 1644.507812 " fill-opacity="1" fill-rule="nonzero"/><path fill="#00791b" d="M 2200.023438 1379.714844 C 2201.34375 1382.304688 2201.277344 1385.496094 2199.574219 1388.101562 L 2163.714844 1446.070312 C 2161.183594 1449.9375 2156.316406 1451.410156 2152.457031 1448.878906 L 2111.328125 1423.367188 C 2110.074219 1422.539062 2108.203125 1420.300781 2107.566406 1419.058594 C 2106.246094 1416.46875 2106.488281 1413.3125 2108.195312 1410.703125 L 2134.523438 1368.15625 L 2150.507812 1358.472656 C 2153.039062 1354.605469 2162.957031 1361.105469 2166.824219 1363.644531 L 2197.152344 1376.542969 C 2198.421875 1377.367188 2199.390625 1378.480469 2200.023438 1379.714844 Z M 2200.023438 1379.714844 " fill-opacity="1" fill-rule="nonzero"/><path fill="#32c36c" d="M 2248.898438 1420.445312 C 2250.996094 1424.5625 2249.375 1429.582031 2245.246094 1431.6875 L 2200.585938 1454.441406 C 2196.476562 1456.527344 2191.445312 1454.898438 2189.359375 1450.789062 L 2151.417969 1376.367188 C 2144.410156 1362.59375 2132.292969 1371.582031 2132.292969 1371.582031 C 2132.292969 1371.582031 2135.230469 1367.019531 2135.714844 1366.316406 C 2139.050781 1361.558594 2145.195312 1356.394531 2154.226562 1356.570312 L 2211.519531 1356.335938 C 2214.226562 1356.335938 2217.125 1358.082031 2218.570312 1360.90625 Z M 2248.898438 1420.445312 " fill-opacity="1" fill-rule="nonzero"/><path fill="#32c36c" d="M 2275.015625 1416.519531 C 2276.003906 1418.449219 2276.210938 1420.738281 2275.519531 1422.882812 L 2253.625 1490.300781 C 2252.207031 1494.683594 2247.496094 1497.082031 2243.101562 1495.660156 L 2175.691406 1473.753906 C 2173.539062 1473.058594 2171.816406 1471.539062 2170.824219 1469.609375 C 2170.332031 1468.65625 2170.023438 1467.585938 2169.929688 1466.46875 C 2169.664062 1463.09375 2171.464844 1459.902344 2174.472656 1458.375 L 2263.78125 1412.867188 C 2266.789062 1411.332031 2270.421875 1411.75 2272.996094 1413.953125 C 2273.855469 1414.671875 2274.53125 1415.558594 2275.015625 1416.519531 Z M 2275.015625 1416.519531 " fill-opacity="1" fill-rule="nonzero"/><path fill="#00791b" d="M 2056.207031 1557.15625 C 2057.71875 1554.675781 2060.464844 1553.0625 2063.574219 1553.15625 L 2131.742188 1553.195312 C 2136.359375 1553.339844 2140.167969 1556.703125 2140.050781 1561.316406 L 2139.933594 1609.71875 C 2139.894531 1611.222656 2138.964844 1613.996094 2138.238281 1615.183594 C 2136.726562 1617.664062 2133.902344 1619.125 2130.796875 1619.035156 L 2080.761719 1618.964844 L 2064.117188 1610.453125 C 2059.511719 1610.3125 2059.832031 1598.46875 2059.949219 1593.867188 L 2054.996094 1561.257812 C 2055.027344 1559.761719 2055.480469 1558.351562 2056.207031 1557.15625 Z M 2056.207031 1557.15625 " fill-opacity="1" fill-rule="nonzero"/><path fill="#32c36c" d="M 2065.195312 1494.175781 C 2067.589844 1490.230469 2072.726562 1488.980469 2076.671875 1491.375 L 2119.488281 1517.429688 C 2123.4375 1519.828125 2124.683594 1524.957031 2122.285156 1528.90625 L 2078.875 1600.265625 C 2070.855469 1613.460938 2084.863281 1619.058594 2084.863281 1619.058594 C 2084.863281 1619.058594 2079.433594 1618.941406 2078.589844 1618.890625 C 2072.777344 1618.574219 2065.152344 1616.042969 2060.558594 1608.273438 L 2030.269531 1559.660156 C 2028.84375 1557.363281 2028.816406 1553.964844 2030.460938 1551.257812 Z M 2065.195312 1494.175781 " fill-opacity="1" fill-rule="nonzero"/><path fill="#32c36c" d="M 2048.121094 1474.019531 C 2049.257812 1472.148438 2051.085938 1470.777344 2053.28125 1470.226562 L 2122.152344 1453.472656 C 2126.636719 1452.367188 2131.148438 1455.117188 2132.242188 1459.601562 L 2149.007812 1528.464844 C 2149.539062 1530.667969 2149.148438 1532.921875 2148.019531 1534.785156 C 2147.46875 1535.695312 2146.726562 1536.523438 2145.816406 1537.191406 C 2143.09375 1539.179688 2139.433594 1539.332031 2136.542969 1537.578125 L 2050.925781 1485.496094 C 2048.035156 1483.734375 2046.492188 1480.410156 2047.007812 1477.078125 C 2047.175781 1475.957031 2047.5625 1474.9375 2048.121094 1474.019531 Z M 2048.121094 1474.019531 " fill-opacity="1" fill-rule="nonzero"/></svg>